<svg xmlns="http://www.w3.org/2000/svg" viewBox="0 0 96 96" fill="none" stroke-linecap="round" stroke-linejoin="round">
<g transform="translate(48 48) scale(0.86) translate(-48 -48)">
<defs><radialGradient id="sh"><stop offset="0" stop-color="#57534E" stop-opacity="0.17"/><stop offset="0.62" stop-color="#57534E" stop-opacity="0.07"/><stop offset="1" stop-color="#57534E" stop-opacity="0"/></radialGradient></defs>
<ellipse cx="48" cy="85" rx="28" ry="4.2" fill="url(#sh)"/>
<g stroke="#57534E" stroke-width="3.2">

<path d="M30 34h36a10 10 0 0 1 10 10v34a6 6 0 0 1-6 6H26a6 6 0 0 1-6-6V44a10 10 0 0 1 10-10z" fill="#FFFFFF"/>
<path d="M32 58h32v20H32z" fill="#DCE6F2" stroke-width="2.6"/>
<path d="M40 20c0 6 8 6 8 12M52 16c0 6 8 6 8 12" fill="none" stroke="#DCE8DF" stroke-width="3"/>
</g>
</g>
</svg>
