<svg xmlns="http://www.w3.org/2000/svg" viewBox="0 0 96 96" fill="none" stroke-linecap="round" stroke-linejoin="round">
<g transform="translate(48 48) scale(0.86) translate(-48 -48)">
<defs><radialGradient id="sh"><stop offset="0" stop-color="#57534E" stop-opacity="0.17"/><stop offset="0.62" stop-color="#57534E" stop-opacity="0.07"/><stop offset="1" stop-color="#57534E" stop-opacity="0"/></radialGradient></defs>
<ellipse cx="48" cy="85" rx="28" ry="4.2" fill="url(#sh)"/>
<g stroke="#57534E" stroke-width="3.2">

<path d="M18 29h60a10 10 0 0 1 10 10v18a10 10 0 0 1-10 10H18A10 10 0 0 1 8 57V39a10 10 0 0 1 10-10z" fill="#E9E3D8"/>
<rect x="25" y="40" width="29" height="11" rx="5.5" fill="#FFFFFF"/>
<path d="M31 45h3M38 45h3M45 45h3" stroke="#7FA48D" stroke-width="3"/>
<rect x="67" y="41" width="10" height="11" rx="3" fill="#FFFFFF"/>
<rect x="70" y="44" width="4" height="5" rx="1.5" fill="#DCE6F2" stroke="none"/>
</g>
</g>
</svg>
